<svg id="Capa_1" enable-background="new 0 0 512.022 512.022" height="512" viewBox="0 0 512.022 512.022" width="512" xmlns="http://www.w3.org/2000/svg"><g id="XMLID_1913_"><g id="XMLID_490_"><path id="XMLID_491_" d="m314.399 115.84c-2.64 0-5.21 1.07-7.07 2.93-1.859 1.86-2.93 4.44-2.93 7.07 0 2.64 1.07 5.21 2.93 7.07 1.86 1.87 4.431 2.93 7.07 2.93 2.63 0 5.21-1.06 7.07-2.93 1.859-1.86 2.93-4.44 2.93-7.07s-1.07-5.2-2.93-7.07c-1.86-1.859-4.44-2.93-7.07-2.93z"/><path id="XMLID_492_" d="m376.499 135.84c2.63 0 5.21-1.06 7.07-2.93 1.86-1.86 2.93-4.44 2.93-7.07s-1.069-5.2-2.93-7.07c-1.86-1.86-4.44-2.93-7.07-2.93s-5.21 1.07-7.069 2.93c-1.86 1.86-2.931 4.44-2.931 7.07 0 2.64 1.07 5.21 2.931 7.07 1.859 1.871 4.439 2.93 7.069 2.93z"/><path id="XMLID_495_" d="m507.121 409.202c12.625-74.346-1.517-132.405-15.603-168.019-11.369-28.747-25.073-49.349-33.674-60.672 13.679-17.352 21.126-38.809 21.126-61.299 0-8.057-.972-15.889-2.794-23.394 19.155-1.933 34.157-18.15 34.157-37.806 0-20.953-17.047-38-38-38-14.209 0-26.743 8-33.256 19.727-16.554-12.385-37.089-19.727-59.306-19.727h-68.645c-21.89 0-42.143 7.132-58.569 19.188-6.566-11.492-18.94-19.188-33.012-19.188-20.953 0-38 17.047-38 38 0 19.328 14.508 35.32 33.203 37.686-1.84 7.541-2.823 15.414-2.823 23.514 0 21.786 7.463 43.328 20.759 60.627-44.665 34.874-71.018 88.499-71.018 145.58 0 40.51 14.541 77.685 38.669 106.593h-25.669c-19.115 0-34.667-15.552-34.667-34.667v-64.001c0-5.523-4.477-10-10-10s-10 4.477-10 10v64.001c0 30.144 24.523 54.667 54.667 54.667h45.426c8.93 7.642 18.672 14.361 29.082 20h-74.508c-41.171 0-74.667-33.496-74.667-74.667v-211.01c0-16.473-12.672-29.857-28.85-30.469-8.222-.323-16.02 2.662-21.949 8.372-5.932 5.713-9.2 13.386-9.2 21.606v50.451c0 5.586-4.318 10.284-9.626 10.472-2.76.094-5.347-.895-7.317-2.796-1.972-1.902-3.057-4.458-3.057-7.197v-50.019c0-27.655 22.08-50.491 49.221-50.904 13.475-.24 26.211 4.903 35.841 14.386 9.633 9.487 14.938 22.133 14.938 35.607v57.5c0 5.523 4.477 10 10 10s10-4.477 10-10v-57.5c0-18.874-7.424-36.581-20.905-49.857-13.476-13.272-31.296-20.403-50.18-20.135-37.999.58-68.915 32.387-68.915 70.903v50.019c0 8.215 3.256 15.882 9.168 21.588 5.911 5.705 13.691 8.687 21.916 8.393 16.214-.576 28.916-13.956 28.916-30.46v-50.451c0-2.734 1.091-5.291 3.073-7.199 1.978-1.905 4.586-2.892 7.32-2.794 5.297.201 9.607 4.904 9.607 10.484v211.008c0 52.2 42.467 94.667 94.667 94.667h237.955c5.523 0 10-4.477 10-10 0-2.706-.208-5.363-.594-7.963 6.539 1.906 13.376 2.907 20.363 2.907 20.63 0 40.375-8.811 54.173-24.17 5.107-5.685 6.25-13.807 2.912-20.692-.749-1.546-1.695-2.946-2.784-4.197 5.465-4.825 9.197-11.437 10.429-18.693zm-34.788-369.191c9.925 0 18 8.075 18 18s-8.075 18-18 18c-1.166 0-2.315-.112-3.439-.329-3.797-7.743-8.57-14.925-14.164-21.377 1.729-8.13 9.018-14.294 17.603-14.294zm-252.788 36c-9.925 0-18-8.075-18-18s8.075-18 18-18c8.311 0 15.373 5.66 17.408 13.407-5.971 6.724-11.045 14.259-15.03 22.422-.784.103-1.576.171-2.378.171zm108.714 396c-80.831 0-146.593-65.761-146.593-146.593 0-54.219 26.664-104.942 71.327-135.683 2.427-1.67 3.994-4.326 4.282-7.258.289-2.932-.73-5.842-2.785-7.954-14.34-14.734-22.564-34.895-22.564-55.312 0-43.671 35.529-79.2 79.201-79.2h68.645c43.671 0 79.199 35.529 79.199 79.2 0 20.322-7.595 39.569-21.385 54.194-3.486 3.698-3.645 9.422-.369 13.307 6.371 7.554 22.603 28.701 35.704 61.826 13.148 33.244 26.334 87.522 14.482 157.316-.565 3.327-2.422 6.184-5.23 8.043-2.791 1.848-6.121 2.441-9.377 1.668-6.136-1.456-10.104-7.517-9.033-13.8 12.508-73.441-4.44-128.573-20.859-161.89-2.44-4.954-8.436-6.992-13.391-4.549-4.953 2.441-6.99 8.437-4.549 13.39 15.112 30.666 30.691 81.529 19.082 149.691-.634 3.721-.592 7.411.03 10.946-1.252-1.039-2.47-2.128-3.631-3.288-10.728-10.727-16.325-25.572-15.359-40.73.493-7.737-3.694-14.92-10.668-18.301-6.888-3.337-15.009-2.195-20.694 2.912-2.297 2.063-4.428 4.273-6.424 6.585-6.954-21.13-22.493-38.557-42.702-47.865 2.308-1.87 4.539-3.862 6.679-5.982 16.877-16.714 26.172-38.968 26.172-62.662v-15.677c0-2.419-.279-4.772-.79-7.039 20.6-10.489 34.52-30.893 36.577-54.192 13.702-10.411 21.735-26.458 21.735-43.902 0-30.438-24.763-55.2-55.2-55.2h-68.645c-30.438 0-55.2 24.763-55.2 55.2 0 17.704 8.613 34.36 22.799 44.677 2.276 22.535 15.808 42.437 35.622 52.947-.582 2.41-.898 4.922-.898 7.509v15.677c0 13.132-10.678 23.997-23.803 24.221-6.37.113-12.406-2.359-17.072-6.947-4.814-4.732-7.573-11.277-7.573-17.956 0-5.523-4.478-10-10-10-5.523 0-10 4.477-10 10 0 12.007 4.939 23.751 13.552 32.218 8.522 8.378 19.699 12.883 31.434 12.682 23.966-.408 43.463-20.244 43.463-44.218v-15.677c0-6.617 5.383-12 12-12s12 5.383 12 12v15.677c0 18.315-7.19 35.523-20.245 48.452-12.892 12.767-29.904 19.772-47.975 19.772-.226 0-.453-.001-.68-.003-5.478-.033-10.042 4.38-10.097 9.902-.053 5.523 4.381 10.043 9.903 10.097.293.003.585.004.879.004 11.156 0 21.992-2.086 32.092-6.038 28.665 4.883 49.976 29.935 49.976 59.303 0 14.575-5.281 28.635-14.871 39.591-4.252 4.858-5.238 11.524-2.573 17.399 2.661 5.866 8.317 9.51 14.763 9.51 15.27 0 28.22 10.117 32.5 24zm-3.313-272.212c-15.753-7.766-26.193-23.838-26.552-41.724-.069-3.485-1.949-6.682-4.96-8.438-10.8-6.297-17.508-17.956-17.508-30.425 0-19.41 15.791-35.2 35.2-35.2h68.645c19.409 0 35.2 15.791 35.2 35.2 0 12.288-6.255 23.49-16.731 29.965-2.918 1.804-4.708 4.977-4.741 8.407-.182 18.424-10.883 34.818-27.19 42.525-5.607-4.832-12.896-7.765-20.861-7.765-7.795 0-14.945 2.805-20.502 7.455zm117.444 257.156c-14.049 0-27.299-5.514-37.311-15.526s-15.525-23.263-15.525-37.312c0-14.001 5.599-27.444 15.45-37.315-.52 19.932 7.157 39.262 21.299 53.404 14.143 14.142 33.486 21.824 53.403 21.298-9.873 9.853-23.314 15.451-37.316 15.451z"/><path id="XMLID_507_" d="m358.812 161.677c0-5.523-4.478-10-10-10h-6.728c-5.522 0-10 4.477-10 10s4.478 10 10 10h6.728c5.522 0 10-4.477 10-10z"/><path id="XMLID_508_" d="m129.999 278.34c-2.63 0-5.21 1.07-7.07 2.93s-2.93 4.44-2.93 7.07c0 2.64 1.07 5.21 2.93 7.07 1.86 1.87 4.44 2.93 7.07 2.93s5.21-1.06 7.07-2.93c1.86-1.86 2.93-4.43 2.93-7.07 0-2.63-1.07-5.21-2.93-7.07-1.86-1.859-4.44-2.93-7.07-2.93z"/></g></g></svg>