<svg id="Capa_1" enable-background="new 0 0 512 512" height="512" viewBox="0 0 512 512" width="512" xmlns="http://www.w3.org/2000/svg"><g><path d="m506.726 344.414c-25.942-22.156-40.821-54.381-40.821-88.413s14.879-66.258 40.821-88.413c11.016-9.408 3.521-27.498-10.917-26.358-71.368 5.609-130.65-53.735-125.036-125.036 1.137-14.446-16.952-21.931-26.359-10.918-46.492 54.439-130.39 54.374-176.827 0-9.41-11.015-27.495-3.523-26.359 10.918 2.678 34.011-9.588 67.319-33.652 91.383-24.065 24.064-57.367 36.326-91.384 33.653-14.445-1.137-21.93 16.953-10.917 26.358 25.941 22.155 40.82 54.38 40.82 88.412s-14.879 66.258-40.821 88.413c-11.011 9.404-3.53 27.497 10.917 26.358 34.017-2.679 67.319 9.588 91.384 33.653 24.064 24.064 36.33 57.372 33.652 91.383-1.137 14.445 16.952 21.931 26.359 10.918 46.492-54.439 130.39-54.374 176.827 0 9.361 10.96 27.499 3.571 26.359-10.918-5.618-71.36 53.735-130.643 125.036-125.036 14.444 1.148 21.93-16.952 10.918-26.357zm-42.719-2.255c-30.338 4.731-58.671 18.93-80.795 41.054-22.126 22.126-36.324 50.453-41.054 80.794-51.291-37.459-121.002-37.476-172.318 0-4.729-30.34-18.928-58.668-41.053-80.794-22.126-22.125-50.454-36.324-80.795-41.054 18.111-24.798 28.101-54.869 28.101-86.159s-9.991-61.361-28.101-86.159c30.338-4.731 58.671-18.93 80.795-41.054 22.126-22.126 36.324-50.453 41.054-80.794 51.291 37.459 121.002 37.476 172.318 0 9.782 62.759 59.062 112.061 121.848 121.848-18.11 24.798-28.101 54.869-28.101 86.159s9.991 61.362 28.101 86.159z"/><path d="m256 112.237c-79.27 0-143.763 64.492-143.763 143.763s64.492 143.763 143.763 143.763 143.762-64.491 143.762-143.763-64.492-143.763-143.762-143.763zm0 257.528c-62.73 0-113.764-51.035-113.764-113.765s51.034-113.765 113.764-113.765 113.764 51.035 113.764 113.765-51.035 113.765-113.764 113.765z"/></g></svg>